<?xml version="1.0" encoding="UTF-8" standalone="no"?>
<!-- Created with Inkscape (http://www.inkscape.org/) -->

<svg
   xmlns:dc="http://purl.org/dc/elements/1.1/"
   xmlns:cc="http://creativecommons.org/ns#"
   xmlns:rdf="http://www.w3.org/1999/02/22-rdf-syntax-ns#"
   xmlns:svg="http://www.w3.org/2000/svg"
   xmlns="http://www.w3.org/2000/svg"
   xmlns:sodipodi="http://sodipodi.sourceforge.net/DTD/sodipodi-0.dtd"
   xmlns:inkscape="http://www.inkscape.org/namespaces/inkscape"
   width="640px"
   height="480px"
   viewBox="0 0 640 480"
   version="1.1"
   id="SVGRoot"
   inkscape:version="0.92.5 (2060ec1f9f, 2020-04-08)"
   sodipodi:docname="Hepic icon.svg">
  <defs
     id="defs8132" />
  <sodipodi:namedview
     id="base"
     pagecolor="#ffffff"
     bordercolor="#666666"
     borderopacity="1.0"
     inkscape:pageopacity="0.0"
     inkscape:pageshadow="2"
     inkscape:zoom="1.4"
     inkscape:cx="408.08265"
     inkscape:cy="215.12497"
     inkscape:document-units="px"
     inkscape:current-layer="layer1"
     showgrid="false"
     inkscape:window-width="1920"
     inkscape:window-height="1018"
     inkscape:window-x="-8"
     inkscape:window-y="-8"
     inkscape:window-maximized="1" />
  <metadata
     id="metadata8135">
    <rdf:RDF>
      <cc:Work
         rdf:about="">
        <dc:format>image/svg+xml</dc:format>
        <dc:type
           rdf:resource="http://purl.org/dc/dcmitype/StillImage" />
        <dc:title></dc:title>
      </cc:Work>
    </rdf:RDF>
  </metadata>
  <g
     inkscape:label="Layer 1"
     inkscape:groupmode="layer"
     id="layer1">
    <path
       style="fill:#000000;stroke-width:0.31999999"
       d="M 322.79801,397.47228 V 378.36332 L 353.25204,347.487 c 16.74971,-16.98198 45.06166,-45.67232 62.91543,-63.75632 l 32.46142,-32.88 h 18.90774 18.90775 l -9.26931,9.36 c -9.05245,9.14104 -18.19047,18.40099 -92.44625,93.68 -19.87808,20.152 -41.94446,42.50137 -49.03639,49.66528 l -12.89442,13.02525 z m -35.93814,2.89149 c -15.21354,-15.06496 -43.65607,-43.13594 -98.46185,-97.17552 -19.8,-19.52319 -39.816,-39.28516 -44.48,-43.91548 l -8.48,-8.41877 19.14438,-0.002 19.14439,-0.002 36.05561,35.60786 c 19.83059,19.58432 48.46824,47.84432 63.63923,62.8 l 27.58362,27.19214 0.0164,18.8 c 0.009,10.34 -0.0638,18.8 -0.16176,18.8 -0.098,0 -6.39799,-6.1591 -14,-13.68691 z m -9.50185,-161.35309 v -44.16 h 5.44 5.44 v 18.06874 c 0,17.53653 0.0182,18.0785 0.61896,18.4 0.40979,0.21931 8.2031,0.33126 23.06103,0.33126 14.85794,0 22.65125,-0.11195 23.06104,-0.33126 0.60073,-0.3215 0.61896,-0.86347 0.61896,-18.4 v -18.06874 h 5.44 5.44 v 44.16 44.16 h -5.43768 -5.43768 l -0.0823,-20.88 -0.0823,-20.88 h -23.52 -23.51999 l -0.0823,20.88 -0.0823,20.88 h -5.43768 -5.43768 z m -135.17668,-13.84 c 13.28293,-13.49159 54.54572,-55.3332 75.34311,-76.4 13.29182,-13.464 35.16554,-35.64 48.60828,-49.279999 13.44274,-13.64 26.79572,-27.17546 29.67331,-30.078803 l 5.23198,-5.278806 -0.0136,19.198809 -0.0136,19.198799 -35.70083,36.16 c -19.63545,19.888 -47.80955,48.436 -62.60911,63.44 l -26.9083,27.28 H 156.89977 138.0069 l 4.17443,-4.24 z m 292.10621,-11.52196 c -8.78325,-8.66907 -37.46154,-36.97506 -63.72954,-62.90219 l -47.76,-47.14025 V 84.680861 65.755428 l 9.2,9.124823 c 5.06,5.01865 25.4,25.1001 45.2,44.625439 57.43736,56.64062 85.00499,83.85199 98.60627,97.3319 l 12.68627,12.57309 h -19.11673 -19.11674 z"
       id="path8701-7"
       inkscape:connector-curvature="0" />
  </g>
</svg>
